<?xml version="1.0" encoding="utf-8"?>
<!-- Generator: Adobe Illustrator 22.1.0, SVG Export Plug-In . SVG Version: 6.00 Build 0)  -->
<svg version="1.1" id="Слой_1" xmlns:x="&ns_extend;" xmlns:i="&ns_ai;" xmlns:graph="&ns_graphs;"
	 xmlns="http://www.w3.org/2000/svg" xmlns:xlink="http://www.w3.org/1999/xlink" x="0px" y="0px" viewBox="0 0 200 200"
	 style="enable-background:new 0 0 200 200;" xml:space="preserve">
<style type="text/css">
	.st0{fill:#CC3233;}
	.st1{fill:#FFFFFF;}
</style>
<metadata>
	<sfw  xmlns="&ns_sfw;">
		<slices></slices>
		<sliceSourceBounds  bottomLeftOrigin="true" height="200" width="200" x="0" y="-200"></sliceSourceBounds>
	</sfw>
</metadata>
<circle class="st0" cx="100" cy="100" r="100"/>
<path class="st1" d="M144,141.4L144,141.4c-4.5,4.5-12,4.5-16.5,0L56,70c-4.5-4.5-4.5-12,0-16.5l0,0c4.5-4.5,12-4.5,16.5,0
	l71.4,71.4C148.5,129.4,148.5,136.8,144,141.4z"/>
<path class="st1" d="M144,53.4L144,53.4c4.5,4.5,4.5,12,0,16.5l-71.4,71.4c-4.5,4.5-12,4.5-16.5,0l0,0c-4.5-4.5-4.5-12,0-16.5
	l71.4-71.4C132,48.9,139.4,48.9,144,53.4z"/>
</svg>
