<?xml version="1.0" encoding="utf-8"?>
<!-- Generator: Adobe Illustrator 22.1.0, SVG Export Plug-In . SVG Version: 6.00 Build 0)  -->
<svg version="1.1" id="Слой_1" xmlns="http://www.w3.org/2000/svg" xmlns:xlink="http://www.w3.org/1999/xlink" x="0px" y="0px"
	 viewBox="0 0 500 500" style="enable-background:new 0 0 500 500;" xml:space="preserve">
<style type="text/css">
	.st0{fill:#6D9CC9;stroke:#F9F9F9;stroke-miterlimit:10;}
	.st1{fill:#FFFFFF;}
	.st2{fill:#6D9CC9;}
</style>
<path class="st0" d="M392.2,446H123.9C91.4,446,65,419.6,65,387V118.7c0-32.6,26.4-58.9,58.9-58.9h268.3c32.6,0,58.9,26.4,58.9,58.9
	V387C451.2,419.6,424.8,446,392.2,446z"/>
<path class="st1" d="M387.7,421.9H128.4c-21.7,0-39.3-17.6-39.3-39.3V123.2c0-21.7,17.6-39.3,39.3-39.3h259.3
	c21.7,0,39.3,17.6,39.3,39.3v259.3C427.1,404.3,409.5,421.9,387.7,421.9z"/>
<path class="st2" d="M264.6,338.2h-13c-8.1,0-14.6-6.6-14.6-14.6V176.4c0-8.1,6.6-14.6,14.6-14.6h13c8.1,0,14.6,6.6,14.6,14.6v147.2
	C279.2,331.7,272.7,338.2,264.6,338.2z"/>
<path class="st2" d="M342.2,239.9v13c0,8.1-6.6,14.6-14.6,14.6h-139c-8.1,0-14.6-6.6-14.6-14.6v-13c0-8.1,6.6-14.6,14.6-14.6h139
	C335.7,225.2,342.2,231.8,342.2,239.9z"/>
</svg>
