<?xml version="1.0" encoding="utf-8"?>
<!-- Generator: Adobe Illustrator 22.1.0, SVG Export Plug-In . SVG Version: 6.00 Build 0)  -->
<svg version="1.1" id="Слой_1" xmlns="http://www.w3.org/2000/svg" xmlns:xlink="http://www.w3.org/1999/xlink" x="0px" y="0px"
	 viewBox="0 0 500 200" style="enable-background:new 0 0 500 200;" xml:space="preserve">
<style type="text/css">
	.st0{fill:#FFFFFF;stroke:#6498C1;stroke-width:5;stroke-miterlimit:10;}
	.st1{fill:#6D9CC9;}
	.st2{fill:#323366;}
	.st3{font-family:'MyriadPro-Regular';}
	.st4{font-size:56.9039px;}
</style>
<path class="st0" d="M423.5,162.3H76.1C39,162.3,9,132.2,9,95.1v0C9,58,39,27.9,76.1,27.9h347.4c37.1,0,67.2,30.1,67.2,67.2v0
	C490.7,132.2,460.6,162.3,423.5,162.3z"/>
<path class="st1" d="M412.2,133.6L412.2,133.6c-5.1,0-9.3-4.1-9.3-9.3V65.9c0-5.1,4.1-9.3,9.3-9.3l0,0c5.1,0,9.3,4.1,9.3,9.3v58.4
	C421.4,129.4,417.3,133.6,412.2,133.6z"/>
<path class="st1" d="M449.1,94.8L449.1,94.8c0,5.1-4.1,9.2-9.2,9.2h-55.3c-5.1,0-9.2-4.1-9.2-9.2v0c0-5.1,4.1-9.2,9.2-9.2h55.3
	C444.9,85.6,449.1,89.7,449.1,94.8z"/>
<text transform="matrix(0.8229 0 0 1 60.5215 109.7845)" class="st2 st3 st4">Add master</text>
</svg>
