<?xml version="1.0" encoding="utf-8"?>
<!-- Generator: Adobe Illustrator 22.1.0, SVG Export Plug-In . SVG Version: 6.00 Build 0)  -->
<svg version="1.1" id="Слой_1" xmlns="http://www.w3.org/2000/svg" xmlns:xlink="http://www.w3.org/1999/xlink" x="0px" y="0px"
	 viewBox="0 0 1000 175" style="enable-background:new 0 0 1000 175;" xml:space="preserve">
<style type="text/css">
	.st0{fill:#FFFFFF;stroke:#6498C1;stroke-width:4;stroke-miterlimit:10;}
	.st1{fill:#6B9CC0;}
</style>
<path class="st0" d="M909.4,146.7H86.6c-33.3,0-60.2-27-60.2-60.2v0c0-33.3,27-60.2,60.2-60.2h822.8c33.3,0,60.2,27,60.2,60.2v0
	C969.6,119.8,942.7,146.7,909.4,146.7z"/>
<path class="st1" d="M876.7,125L876.7,125c-5.1,0-9.3-4.1-9.3-9.3V57.3c0-5.1,4.1-9.3,9.3-9.3l0,0c5.1,0,9.3,4.1,9.3,9.3v58.4
	C885.9,120.8,881.8,125,876.7,125z"/>
<path class="st1" d="M913.6,86.2L913.6,86.2c0,5.1-4.1,9.2-9.2,9.2h-55.3c-5.1,0-9.2-4.1-9.2-9.2l0,0c0-5.1,4.1-9.2,9.2-9.2h55.3
	C909.4,77,913.6,81.1,913.6,86.2z"/>
</svg>
