<?xml version="1.0" encoding="utf-8"?>
<!-- Generator: Adobe Illustrator 22.1.0, SVG Export Plug-In . SVG Version: 6.00 Build 0)  -->
<svg version="1.1" id="Слой_1" xmlns:x="&ns_extend;" xmlns:i="&ns_ai;" xmlns:graph="&ns_graphs;"
	 xmlns="http://www.w3.org/2000/svg" xmlns:xlink="http://www.w3.org/1999/xlink" x="0px" y="0px" viewBox="0 0 200 200"
	 style="enable-background:new 0 0 200 200;" xml:space="preserve">
<style type="text/css">
	.st0{fill:#666666;}
	.st1{fill:#333333;}
</style>
<metadata>
	<sfw  xmlns="&ns_sfw;">
		<slices></slices>
		<sliceSourceBounds  bottomLeftOrigin="true" height="121.6" width="121.6" x="38.3" y="-160.8"></sliceSourceBounds>
	</sfw>
</metadata>
<path class="st0" d="M159.9,100c0,33.6-27.2,60.8-60.8,60.8c-33.6,0-60.8-27.2-60.8-60.8s27.2-60.8,60.8-60.8
	C132.7,39.2,159.9,66.4,159.9,100z"/>
<path class="st0" d="M159.9,100c0,33.6-27.2,60.8-60.8,60.8c-33.6,0-60.8-27.2-60.8-60.8s27.2-60.8,60.8-60.8
	C132.7,39.2,159.9,66.4,159.9,100z"/>
<polygon points="142.8,67.5 104.5,133.7 99,143.3 93.8,134.4 55.5,68 63.8,63.1 99.4,124.8 135,63 "/>
<rect x="52.2" y="61.4" class="st1" width="19.8" height="76.1"/>
<rect x="126.7" y="61.9" class="st1" width="19.8" height="76.1"/>
</svg>
