<?xml version="1.0" encoding="utf-8"?>
<!-- Generator: Adobe Illustrator 22.1.0, SVG Export Plug-In . SVG Version: 6.00 Build 0)  -->
<svg version="1.1" id="Слой_1" xmlns:x="&ns_extend;" xmlns:i="&ns_ai;" xmlns:graph="&ns_graphs;"
	 xmlns="http://www.w3.org/2000/svg" xmlns:xlink="http://www.w3.org/1999/xlink" x="0px" y="0px" viewBox="0 0 1000 175"
	 style="enable-background:new 0 0 1000 175;" xml:space="preserve">
<style type="text/css">
	.st0{fill:#FFFFFF;stroke:#999999;stroke-width:4;stroke-miterlimit:10;}
	.st1{fill:#999999;}
	.st2{fill:#666666;}
</style>
<metadata><?xpacket begin="﻿" id="W5M0MpCehiHzreSzNTczkc9d"?>
<x:xmpmeta xmlns:x="adobe:ns:meta/" x:xmptk="Adobe XMP Core 5.6-c143 79.161356, 2017/09/07-01:11:22        ">
   <rdf:RDF xmlns:rdf="http://www.w3.org/1999/02/22-rdf-syntax-ns#">
      <rdf:Description rdf:about=""
            xmlns:xmp="http://ns.adobe.com/xap/1.0/"
            xmlns:xmpGImg="http://ns.adobe.com/xap/1.0/g/img/"
            xmlns:xmpTPg="http://ns.adobe.com/xap/1.0/t/pg/"
            xmlns:stDim="http://ns.adobe.com/xap/1.0/sType/Dimensions#"
            xmlns:xmpG="http://ns.adobe.com/xap/1.0/g/"
            xmlns:dc="http://purl.org/dc/elements/1.1/"
            xmlns:xmpMM="http://ns.adobe.com/xap/1.0/mm/"
            xmlns:stRef="http://ns.adobe.com/xap/1.0/sType/ResourceRef#"
            xmlns:stEvt="http://ns.adobe.com/xap/1.0/sType/ResourceEvent#">
         <xmp:CreatorTool>Adobe Illustrator CC 22.1 (Windows)</xmp:CreatorTool>
         <xmp:CreateDate>2019-09-07T16:31:56+03:00</xmp:CreateDate>
         <xmp:MetadataDate>2019-09-07T16:31:56+03:00</xmp:MetadataDate>
         <xmp:ModifyDate>2019-09-07T16:31:56+03:00</xmp:ModifyDate>
         <xmp:Thumbnails>
            <rdf:Alt>
               <rdf:li rdf:parseType="Resource">
                  <xmpGImg:width>256</xmpGImg:width>
                  <xmpGImg:height>36</xmpGImg:height>
                  <xmpGImg:format>JPEG</xmpGImg:format>
                  <xmpGImg:image>/9j/4AAQSkZJRgABAgEASABIAAD/7QAsUGhvdG9zaG9wIDMuMAA4QklNA+0AAAAAABAASAAAAAEA&#xA;AQBIAAAAAQAB/+4ADkFkb2JlAGTAAAAAAf/bAIQABgQEBAUEBgUFBgkGBQYJCwgGBggLDAoKCwoK&#xA;DBAMDAwMDAwQDA4PEA8ODBMTFBQTExwbGxscHx8fHx8fHx8fHwEHBwcNDA0YEBAYGhURFRofHx8f&#xA;Hx8fHx8fHx8fHx8fHx8fHx8fHx8fHx8fHx8fHx8fHx8fHx8fHx8fHx8fHx8f/8AAEQgAJAEAAwER&#xA;AAIRAQMRAf/EAaIAAAAHAQEBAQEAAAAAAAAAAAQFAwIGAQAHCAkKCwEAAgIDAQEBAQEAAAAAAAAA&#xA;AQACAwQFBgcICQoLEAACAQMDAgQCBgcDBAIGAnMBAgMRBAAFIRIxQVEGE2EicYEUMpGhBxWxQiPB&#xA;UtHhMxZi8CRygvElQzRTkqKyY3PCNUQnk6OzNhdUZHTD0uIIJoMJChgZhJRFRqS0VtNVKBry4/PE&#xA;1OT0ZXWFlaW1xdXl9WZ2hpamtsbW5vY3R1dnd4eXp7fH1+f3OEhYaHiImKi4yNjo+Ck5SVlpeYmZ&#xA;qbnJ2en5KjpKWmp6ipqqusra6voRAAICAQIDBQUEBQYECAMDbQEAAhEDBCESMUEFURNhIgZxgZEy&#xA;obHwFMHR4SNCFVJicvEzJDRDghaSUyWiY7LCB3PSNeJEgxdUkwgJChgZJjZFGidkdFU38qOzwygp&#xA;0+PzhJSktMTU5PRldYWVpbXF1eX1RlZmdoaWprbG1ub2R1dnd4eXp7fH1+f3OEhYaHiImKi4yNjo&#xA;+DlJWWl5iZmpucnZ6fkqOkpaanqKmqq6ytrq+v/aAAwDAQACEQMRAD8A9M39/cfWFsLBVe9debu9&#xA;THDGTQO4FCSSPhXv8sVWL5fspKNfs+oSn7TXDck368YhSNR/scVXf4c8vf8AVrtP+REX/NOKu/w5&#xA;5e/6tdp/yIi/5pxV3+HPL3/VrtP+REX/ADTirv8ADnl7/q12n/IiL/mnFXf4c8vf9Wu0/wCREX/N&#xA;OKu/w55e/wCrXaf8iIv+acVd/hzy9/1a7T/kRF/zTirv8OeXv+rXaf8AIiL/AJpxV3+HPL3/AFa7&#xA;T/kRF/zTirv8OeXv+rXaf8iIv+acVd/hzy9/1a7T/kRF/wA04q7/AA55e/6tdp/yIi/5pxV3+HPL&#xA;3/VrtP8AkRF/zTirv8OeXv8Aq12n/IiL/mnFXf4c8vf9Wu0/5ERf804q7/Dnl7/q12n/ACIi/wCa&#xA;cVd/hzy9/wBWu0/5ERf804q7/Dnl7/q12n/IiL/mnFXf4c8vf9Wu0/5ERf8ANOKu/wAOeXv+rXaf&#xA;8iIv+acVd/hzy9/1a7T/AJERf804q7/Dnl7/AKtdp/yIi/5pxV3+HPL3/VrtP+REX/NOKu/w55e/&#xA;6tdp/wAiIv8AmnFXf4c8vf8AVrtP+REX/NOKu/w55e/6tdp/yIi/5pxVDXeneTbNo1u7TT7dpTSI&#xA;SRQqWPtUYqif8OeXv+rXaf8AIiL/AJpxVa3l+yjq1gz6fKPstbtxTbpyiNY2H+xxVfYX9x9Yawv1&#xA;VL1F5o6VEc0YNC6A1IIJ+Je3yxVZ5fX1LJr9hWXUHa4ZuvwNtEtfBYwuKpnirsVSfTPMtrfzalFH&#xA;E6NpzMKtSkqKzx+on+T6kMif7HFUPZeariSKxub3TJLOx1D0hBdiSOVVaenpLIFIZeZYKDQ77HFV&#xA;h823KQXN9Jpcv6KtZ7iGa8SSN2VbWZ4ZJTFs3EGMk0qadsVRvmLzFa6Jp0eoTI01u8scbNGQeKPu&#xA;0nuqqCxxVvVvMNtp1/plk0bTTanKY04UoiACsje3JlX6cVdF5htZfMM2ihGEsUfP1zT02kUKzxD/&#xA;AClSVG+R9sVQ9v5lurmQvb6ZLNYfWJLNblHVm9SJ2iZniFSkfqJx5VqOpAG+KrbXzHqkt7c20ukG&#xA;EWYU3Mn1iNgodS60AHxbDFWrbzLqEmlNqs+lNBYi0a8V/Xjdioj9RV4gdSMVVrHzBcy31tZ32nvZ&#xA;teRvJayeokqt6YBZTx3U0avSmKp1irsVdirsVdirsVdirsVdirsVdirsVdirsVQuoarpunRrJfXC&#xA;W6uaIXNKkeAxV5d+Y+q6fqOqW0tjOtxGkHFmToG5saYqz7S/NXl6S3tLcahEZ2RE4FqHlxApv3ri&#xA;qe4qlnmBfTslv1FJdPdbhW6fAu0q18GjLYq35cYDSILc/bswbWQdw0B9P8QoPyxVMsVQ2ptfLp1y&#xA;bBA996T/AFVWICmWnwcidqV64qxu18n3ekzWUljdT3qLbyWN1HO0YAhZC6utFQkiZR1JNGOKrrey&#xA;1u60fStFlsGs4bZbT69dTSQtUWhRykKxPISXaMCrcaCp64q5LXzAmkX2jwaeVlu7m/K30skPoJFd&#xA;3UsqycVdpWIjlB4lBvtXviqZavopuLHTrKKMS29tcQ+sjkbwxqVateu2KpJYeWdbT6tJegSzWN1b&#xA;29s3MEmwtOXGQk0/eSF6sPYYqvh8q6tDHbasLmZtXW7F/PYFovQDTnhPEGC8jxgcovx0qBiq+TS9&#xA;Tl1OGaPSvqOordpJc6tbyoltNbpJ8YeNX9WR5IRxo8dAxry2xVN4tOul1HWZio9O8SJbc1G5SIqf&#xA;lucVSSx0SWPy2+mx6JLbag+mvaNdM9v6bSmDh1SZ2oz/AOTiqY2nltbHWdOvrWIjjbS216zyM5Ab&#xA;gycebNT4kP2fp6YqyHFXYq7FXYq7FXYq7FXYq7FXYq7FXYq7FXYqkHmryjbeYBbmSdreS35BWUBg&#xA;Q9Kggkfy4q8083eWk0C9htknNwJYvU5FeNPiK0pU+GKsp0/8rbN0trmW/kZHCSPEqBSQQDx5cj+r&#xA;FXoOKpb5iaujz24+3eAWsY7kzn0/wDVxVZdw3VjevqFpGZ4J6fX7ZN3qoos0Y7sF2Ze4pTcbqo6z&#xA;v7K9j9S1mWVRs3E7qfBlO6n2OKq+KuxV2KuxV2KuxV2KuxV2KuxV2KuxV2KuxV2KuxV2KuxV2Kux&#xA;V2KuxV2KuxV2KuxVjvmbyXaa9dW9xLcPA0K8GCAHkla036Hc74qyCKNIo0jQURFCqPYCgxVSvL+y&#xA;so/UupliU7LyO7HwVRux9hiqBtIrq+vE1C7jMMEFfqNs+zgsOLSyDsxXZV7Amu52VTXFUo1X/DH1&#xA;gfpD6v8AW6DjWnr09uP7ymKoT/nUP8/XxV3/ADqH+fr4q7/nUP8AP18Vd/zqH+fr4q7/AJ1D/P18&#xA;Vd/zqH+fr4q7/nUP8/XxV3/Oof5+virv+dQ/z9fFXf8AOof5+virv+dQ/wA/XxV3/Oof5+virv8A&#xA;nUP8/XxV3/Oof5+virv+dQ/z9fFXf86h/n6+Ku/51D/P18Vd/wA6h/n6+Ku/51D/AD9fFXf86h/n&#xA;6+Ku/wCdQ/z9fFXf86h/n6+Ku/51D/P18Vd/zqH+fr4q7/nUP8/XxV3/ADqH+fr4q7/nUP8AP18V&#xA;d/zqH+fr4qi9L/wz9YP6P+r/AFunxUp69Pfl+8piqb4q/wD/2Q==</xmpGImg:image>
               </rdf:li>
            </rdf:Alt>
         </xmp:Thumbnails>
         <xmpTPg:MaxPageSize rdf:parseType="Resource">
            <stDim:w>1000.000000</stDim:w>
            <stDim:h>175.000000</stDim:h>
            <stDim:unit>Pixels</stDim:unit>
         </xmpTPg:MaxPageSize>
         <xmpTPg:NPages>1</xmpTPg:NPages>
         <xmpTPg:HasVisibleTransparency>False</xmpTPg:HasVisibleTransparency>
         <xmpTPg:HasVisibleOverprint>False</xmpTPg:HasVisibleOverprint>
         <xmpTPg:PlateNames>
            <rdf:Seq>
               <rdf:li>Cyan</rdf:li>
               <rdf:li>Magenta</rdf:li>
               <rdf:li>Yellow</rdf:li>
               <rdf:li>Black</rdf:li>
            </rdf:Seq>
         </xmpTPg:PlateNames>
         <xmpTPg:SwatchGroups>
            <rdf:Seq>
               <rdf:li rdf:parseType="Resource">
                  <xmpG:groupName>Группа образцов по умолчанию</xmpG:groupName>
                  <xmpG:groupType>0</xmpG:groupType>
               </rdf:li>
            </rdf:Seq>
         </xmpTPg:SwatchGroups>
         <dc:format>image/svg+xml</dc:format>
         <xmpMM:DerivedFrom rdf:parseType="Resource">
            <stRef:instanceID>xmp.iid:d9cc0d08-9e50-d543-9522-3f28a2dc8e65</stRef:instanceID>
            <stRef:documentID>xmp.did:d9cc0d08-9e50-d543-9522-3f28a2dc8e65</stRef:documentID>
            <stRef:originalDocumentID>xmp.did:52bbce0f-1e59-6e4e-af1f-2cf22c8f01ea</stRef:originalDocumentID>
            <stRef:renditionClass>proof:pdf</stRef:renditionClass>
         </xmpMM:DerivedFrom>
         <xmpMM:DocumentID>xmp.did:75e3b6ad-de20-2e43-aa79-edaf7ed2fcae</xmpMM:DocumentID>
         <xmpMM:InstanceID>xmp.iid:75e3b6ad-de20-2e43-aa79-edaf7ed2fcae</xmpMM:InstanceID>
         <xmpMM:OriginalDocumentID>xmp.did:52bbce0f-1e59-6e4e-af1f-2cf22c8f01ea</xmpMM:OriginalDocumentID>
         <xmpMM:History>
            <rdf:Seq>
               <rdf:li rdf:parseType="Resource">
                  <stEvt:action>saved</stEvt:action>
                  <stEvt:instanceID>xmp.iid:52bbce0f-1e59-6e4e-af1f-2cf22c8f01ea</stEvt:instanceID>
                  <stEvt:when>2019-09-07T16:11:08+03:00</stEvt:when>
                  <stEvt:softwareAgent>Adobe Illustrator CC 22.1 (Windows)</stEvt:softwareAgent>
                  <stEvt:changed>/</stEvt:changed>
               </rdf:li>
               <rdf:li rdf:parseType="Resource">
                  <stEvt:action>saved</stEvt:action>
                  <stEvt:instanceID>xmp.iid:75e3b6ad-de20-2e43-aa79-edaf7ed2fcae</stEvt:instanceID>
                  <stEvt:when>2019-09-07T16:31:56+03:00</stEvt:when>
                  <stEvt:softwareAgent>Adobe Illustrator CC 22.1 (Windows)</stEvt:softwareAgent>
                  <stEvt:changed>/</stEvt:changed>
               </rdf:li>
            </rdf:Seq>
         </xmpMM:History>
         <xmpMM:RenditionClass>proof:pdf</xmpMM:RenditionClass>
      </rdf:Description>
   </rdf:RDF>
</x:xmpmeta>
                                                                                                    
                                                                                                    
                                                                                                    
                                                                                                    
                                                                                                    
                                                                                                    
                                                                                                    
                                                                                                    
                                                                                                    
                                                                                                    
                                                                                                    
                                                                                                    
                                                                                                    
                                                                                                    
                                                                                                    
                                                                                                    
                                                                                                    
                                                                                                    
                                                                                                    
                                                                                                    
                           
<?xpacket end="w"?>
	</metadata>
<path class="st0" d="M911.4,145.1H88.6c-33.3,0-60.2-27-60.2-60.2l0,0c0-33.3,27-60.2,60.2-60.2h822.8c33.3,0,60.2,27,60.2,60.2l0,0
	C971.6,118.2,944.7,145.1,911.4,145.1z"/>
<path class="st1" d="M876.7,125L876.7,125c-5.1,0-9.3-4.1-9.3-9.3V57.3c0-5.1,4.1-9.3,9.3-9.3l0,0c5.1,0,9.3,4.1,9.3,9.3v58.4
	C885.9,120.8,881.8,125,876.7,125z"/>
<path class="st1" d="M913.6,86.2L913.6,86.2c0,5.1-4.1,9.2-9.2,9.2h-55.3c-5.1,0-9.2-4.1-9.2-9.2l0,0c0-5.1,4.1-9.2,9.2-9.2h55.3
	C909.4,77,913.6,81.1,913.6,86.2z"/>
<g>
	<path class="st2" d="M117.2,91.4l-4.3,11.6h-2.6l12.3-33.6h3.1l12.9,33.6h-2.8l-4.4-11.6H117.2z M130.5,89c-3.7-10-5.7-14.8-6.3-17
		h0c-0.8,2.5-3,8.5-6,17H130.5z"/>
	<path class="st2" d="M144.5,69.4h11.1c9.2,0,15.6,6.4,15.6,16.5c0,10-6.2,17.1-15.6,17.1h-11.1V69.4z M147.1,100.6h8.1
		c8.9,0,13.2-6.2,13.2-14.5c0-7.4-3.9-14.3-13.2-14.3h-8.1V100.6z"/>
	<path class="st2" d="M178.6,69.4h11.1c9.2,0,15.6,6.4,15.6,16.5c0,10-6.2,17.1-15.6,17.1h-11.1V69.4z M181.2,100.6h8.1
		c8.9,0,13.2-6.2,13.2-14.5c0-7.4-3.9-14.3-13.2-14.3h-8.1V100.6z"/>
	<path class="st2" d="M254.3,87.5c0-6.6,0-12.9,0.2-16.2h-0.1c-1.3,4.5-8.2,21.1-12.4,31.7h-2.5c-3.2-8.2-10.3-26.6-11.8-31.7h-0.1
		c0.2,3.8,0.3,11.7,0.3,17.4V103h-2.6V69.4h3.9c4.6,11.5,10.4,26.6,11.7,30.4h0.1c0.8-2.4,7.5-19.2,12.2-30.4h3.8V103h-2.6V87.5z"/>
	<path class="st2" d="M269.8,91.4l-4.3,11.6h-2.6l12.3-33.6h3.1l12.9,33.6h-2.8l-4.4-11.6H269.8z M283,89c-3.7-10-5.7-14.8-6.3-17h0
		c-0.8,2.5-3,8.5-6,17H283z"/>
	<path class="st2" d="M297.5,94c1,4.5,4,7.1,9.5,7.1c6.1,0,8.5-3.1,8.5-6.7c0-3.8-1.7-6.1-9.1-8c-7.1-1.8-10.2-4.1-10.2-8.9
		c0-4.4,3.2-8.5,10.4-8.5c7.4,0,10.5,4.5,10.9,8.6H315c-0.8-3.6-3.1-6.2-8.4-6.2c-4.8,0-7.5,2.3-7.5,6c0,3.7,2.2,5.1,8.4,6.7
		c9.5,2.4,10.8,6.1,10.8,10.2c0,4.9-3.6,9.2-11.4,9.2c-8.4,0-11.5-4.9-12.1-9.4H297.5z"/>
	<path class="st2" d="M332.3,71.8h-11.3v-2.4h25.3v2.4H335V103h-2.6V71.8z"/>
	<path class="st2" d="M371,86.5h-17.1v14.1h18.8l-0.4,2.4h-21V69.4h20.6v2.4h-18v12.3H371V86.5z"/>
	<path class="st2" d="M381.9,87.3V103h-2.6V69.4h12c6.6,0,10.1,3.6,10.1,8.8c0,4.3-2.5,7.1-6.3,7.9c3.5,0.8,5.8,3.1,5.8,8.8v1.3
		c0,2.4-0.2,5.5,0.4,6.8h-2.6c-0.6-1.4-0.5-4.1-0.5-7v-0.9c0-5.5-1.6-7.8-8.1-7.8H381.9z M381.9,84.9h8.1c5.9,0,8.6-2.2,8.6-6.6
		c0-4.1-2.7-6.5-7.9-6.5h-8.8V84.9z"/>
</g>
</svg>
