<?xml version="1.0" encoding="utf-8"?>
<!-- Generator: Adobe Illustrator 22.1.0, SVG Export Plug-In . SVG Version: 6.00 Build 0)  -->
<svg version="1.1" id="Слой_1" xmlns="http://www.w3.org/2000/svg" xmlns:xlink="http://www.w3.org/1999/xlink" x="0px" y="0px"
	 viewBox="0 0 2000 175" style="enable-background:new 0 0 2000 175;" xml:space="preserve">
<style type="text/css">
	.st0{fill:#FFFFFF;stroke:#999999;stroke-width:4;stroke-miterlimit:10;}
	.st1{fill:#999999;}
</style>
<path class="st0" d="M1883.8,147.7H127.2c-33.3,0-60.2-27-60.2-60.2v0c0-33.3,27-60.2,60.2-60.2h1756.6c33.3,0,60.2,27,60.2,60.2v0
	C1944.1,120.8,1917.1,147.7,1883.8,147.7z"/>
<path class="st1" d="M1840.9,125.7L1840.9,125.7c-5.1,0-9.3-4.1-9.3-9.3V58c0-5.1,4.1-9.3,9.3-9.3l0,0c5.1,0,9.3,4.1,9.3,9.3v58.4
	C1850.1,121.5,1846,125.7,1840.9,125.7z"/>
<path class="st1" d="M1877.8,86.9L1877.8,86.9c0,5.1-4.1,9.2-9.2,9.2h-55.3c-5.1,0-9.2-4.1-9.2-9.2l0,0c0-5.1,4.1-9.2,9.2-9.2h55.3
	C1873.6,77.7,1877.8,81.8,1877.8,86.9z"/>
</svg>
