<?xml version="1.0" encoding="utf-8"?>
<!-- Generator: Adobe Illustrator 22.1.0, SVG Export Plug-In . SVG Version: 6.00 Build 0)  -->
<svg version="1.1" id="Слой_1" xmlns="http://www.w3.org/2000/svg" xmlns:xlink="http://www.w3.org/1999/xlink" x="0px" y="0px"
	 viewBox="0 0 1500 175" style="enable-background:new 0 0 1500 175;" xml:space="preserve">
<style type="text/css">
	.st0{fill:#FFFFFF;stroke:#999999;stroke-width:4;stroke-miterlimit:10;}
	.st1{fill:#999999;}
	.st2{font-family:'MyriadPro-Regular';}
	.st3{font-size:55.2367px;}
</style>
<path class="st0" d="M1417.6,147.7H72.5c-33.3,0-60.2-27-60.2-60.2v0c0-33.3,27-60.2,60.2-60.2h1345.2c33.3,0,60.2,27,60.2,60.2v0
	C1477.9,120.8,1450.9,147.7,1417.6,147.7z"/>
<path class="st1" d="M1395,125.4L1395,125.4c-5.1,0-9.3-4.1-9.3-9.3V57.7c0-5.1,4.1-9.3,9.3-9.3l0,0c5.1,0,9.3,4.1,9.3,9.3v58.4
	C1404.2,121.2,1400.1,125.4,1395,125.4z"/>
<path class="st1" d="M1431.9,86.6L1431.9,86.6c0,5.1-4.1,9.2-9.2,9.2h-55.3c-5.1,0-9.2-4.1-9.2-9.2l0,0c0-5.1,4.1-9.2,9.2-9.2h55.3
	C1427.7,77.4,1431.9,81.5,1431.9,86.6z"/>
<text transform="matrix(1.047 0 0 1 145.8125 103.9404)" class="st2 st3">Add mastrer</text>
</svg>
